<?xml version="1.0" encoding="UTF-8" standalone="no"?>
<!-- Created with Inkscape (http://www.inkscape.org/) -->

<svg
   xmlns:ns0="http://www.iki.fi/pav/software/textext/"
   xmlns:dc="http://purl.org/dc/elements/1.1/"
   xmlns:cc="http://creativecommons.org/ns#"
   xmlns:rdf="http://www.w3.org/1999/02/22-rdf-syntax-ns#"
   xmlns:svg="http://www.w3.org/2000/svg"
   xmlns="http://www.w3.org/2000/svg"
   xmlns:xlink="http://www.w3.org/1999/xlink"
   xmlns:sodipodi="http://sodipodi.sourceforge.net/DTD/sodipodi-0.dtd"
   xmlns:inkscape="http://www.inkscape.org/namespaces/inkscape"
   id="svg2"
   version="1.1"
   inkscape:version="0.48.3.1 r9886"
   width="372.5"
   height="280"
   xml:space="preserve"
   sodipodi:docname="Band.svg"
   inkscape:export-filename="/media/Data/Work/Optimal FLL/optimal-fll/stat/1/Band.png"
   inkscape:export-xdpi="300"
   inkscape:export-ydpi="300"><sodipodi:namedview
     pagecolor="#ffffff"
     bordercolor="#666666"
     borderopacity="1"
     objecttolerance="10"
     gridtolerance="10"
     guidetolerance="10"
     inkscape:pageopacity="0"
     inkscape:pageshadow="2"
     inkscape:window-width="1920"
     inkscape:window-height="1014"
     id="namedview4"
     showgrid="false"
     inkscape:zoom="1.19198"
     inkscape:cx="49.146068"
     inkscape:cy="172.48537"
     inkscape:window-x="-2"
     inkscape:window-y="-3"
     inkscape:window-maximized="1"
     inkscape:current-layer="g10" /><metadata
     id="metadata8"><rdf:RDF><cc:Work
         rdf:about=""><dc:format>image/svg+xml</dc:format><dc:type
           rdf:resource="http://purl.org/dc/dcmitype/StillImage" /><dc:title></dc:title></cc:Work></rdf:RDF></metadata><defs
     id="defs6"><clipPath
       id="clipPath18"
       clipPathUnits="userSpaceOnUse"><path
         id="path20"
         d="m 0,4.16797 2980,0 0,2235.83003 -2980,0 L 0,4.16797 z" /></clipPath><clipPath
       id="clipPath220"
       clipPathUnits="userSpaceOnUse"><path
         id="path222"
         d="m 388.332,2072.5 2315.838,0 0,-1760 -2315.838,0 0,1760 z" /></clipPath><clipPath
       id="clipPath230"
       clipPathUnits="userSpaceOnUse"><path
         id="path232"
         d="m 0,4 0,2236 2980,0 L 2980,4 0,4 z" /></clipPath><clipPath
       id="clipPath256"
       clipPathUnits="userSpaceOnUse"><path
         id="path258"
         d="m 388.332,2072.5 2315.838,0 0,-1760 -2315.838,0 0,1760 z" /></clipPath><clipPath
       id="clipPath266"
       clipPathUnits="userSpaceOnUse"><path
         id="path268"
         d="m 0,4 0,2236 2980,0 L 2980,4 0,4 z" /></clipPath></defs><g
     transform="matrix(1.25,0,0,-1.25,0,280)"
     inkscape:label="ink_ext_XXXXXX"
     inkscape:groupmode="layer"
     id="g10"><g
       transform="scale(0.1,0.1)"
       id="g12"><g
         id="g14"><g
           clip-path="url(#clipPath18)"
           id="g16"><path
             id="path22"
             style="fill:#ffffff;fill-opacity:1;fill-rule:nonzero;stroke:none"
             d="m 0,4.16797 2980,0 0,2235.83003 -2980,0 L 0,4.16797 z" /><path
             id="path24"
             style="fill:#ffffff;fill-opacity:1;fill-rule:evenodd;stroke:none"
             d="m 388.332,313.332 2315,0 0,1759.17 -2315,0 0,-1759.17 z" /><path
             id="path26"
             style="fill:none;stroke:#ffffff;stroke-opacity:1;stroke-width:5;stroke-linecap:butt;stroke-linejoin:round;stroke-miterlimit:10;stroke-dasharray:none"
             d="m 388.332,313.332 0,1759.168 2314.998,0 0,-1759.168 -2314.998,0" /><path
             id="path28"
             style="fill:none;stroke:#000000;stroke-opacity:1;stroke-width:3.33333;stroke-linecap:butt;stroke-linejoin:round;stroke-miterlimit:10;stroke-dasharray:5,40;stroke-dashoffset:0"
             d="m 388.332,313.332 0,1759.168" /><path
             id="path30"
             style="fill:none;stroke:#000000;stroke-opacity:1;stroke-width:3.33333;stroke-linecap:butt;stroke-linejoin:round;stroke-miterlimit:10;stroke-dasharray:5,40;stroke-dashoffset:0"
             d="m 388.332,2072.5 0,0" /><path
             id="path32"
             style="fill:none;stroke:#000000;stroke-opacity:1;stroke-width:3.33333;stroke-linecap:butt;stroke-linejoin:round;stroke-miterlimit:10;stroke-dasharray:5,40;stroke-dashoffset:0"
             d="m 966.668,313.332 0,1759.168" /><path
             id="path34"
             style="fill:none;stroke:#000000;stroke-opacity:1;stroke-width:3.33333;stroke-linecap:butt;stroke-linejoin:round;stroke-miterlimit:10;stroke-dasharray:5,40;stroke-dashoffset:0"
             d="m 966.668,2072.5 0,0" /><path
             id="path36"
             style="fill:none;stroke:#000000;stroke-opacity:1;stroke-width:3.33333;stroke-linecap:butt;stroke-linejoin:round;stroke-miterlimit:10;stroke-dasharray:5,40;stroke-dashoffset:0"
             d="m 1545.83,313.332 0,1759.168" /><path
             id="path38"
             style="fill:none;stroke:#000000;stroke-opacity:1;stroke-width:3.33333;stroke-linecap:butt;stroke-linejoin:round;stroke-miterlimit:10;stroke-dasharray:5,40;stroke-dashoffset:0"
             d="m 1545.83,2072.5 0,0" /><path
             id="path40"
             style="fill:none;stroke:#000000;stroke-opacity:1;stroke-width:3.33333;stroke-linecap:butt;stroke-linejoin:round;stroke-miterlimit:10;stroke-dasharray:5,40;stroke-dashoffset:0"
             d="m 2124.17,313.332 0,1759.168" /><path
             id="path42"
             style="fill:none;stroke:#000000;stroke-opacity:1;stroke-width:3.33333;stroke-linecap:butt;stroke-linejoin:round;stroke-miterlimit:10;stroke-dasharray:5,40;stroke-dashoffset:0"
             d="m 2124.17,2072.5 0,0" /><path
             id="path44"
             style="fill:none;stroke:#000000;stroke-opacity:1;stroke-width:3.33333;stroke-linecap:butt;stroke-linejoin:round;stroke-miterlimit:10;stroke-dasharray:5,40;stroke-dashoffset:0"
             d="m 2703.33,313.332 0,1759.168" /><path
             id="path46"
             style="fill:none;stroke:#000000;stroke-opacity:1;stroke-width:3.33333;stroke-linecap:butt;stroke-linejoin:round;stroke-miterlimit:10;stroke-dasharray:5,40;stroke-dashoffset:0"
             d="m 2703.33,2072.5 0,0" /><path
             id="path48"
             style="fill:none;stroke:#000000;stroke-opacity:1;stroke-width:3.33333;stroke-linecap:butt;stroke-linejoin:round;stroke-miterlimit:10;stroke-dasharray:5,40;stroke-dashoffset:0"
             d="m 388.332,313.332 2314.998,0" /><path
             id="path50"
             style="fill:none;stroke:#000000;stroke-opacity:1;stroke-width:3.33333;stroke-linecap:butt;stroke-linejoin:round;stroke-miterlimit:10;stroke-dasharray:5,40;stroke-dashoffset:0"
             d="m 2703.33,313.332 0,0" /><path
             id="path52"
             style="fill:none;stroke:#000000;stroke-opacity:1;stroke-width:3.33333;stroke-linecap:butt;stroke-linejoin:round;stroke-miterlimit:10;stroke-dasharray:5,40;stroke-dashoffset:0"
             d="m 388.332,606.668 2314.998,0" /><path
             id="path54"
             style="fill:none;stroke:#000000;stroke-opacity:1;stroke-width:3.33333;stroke-linecap:butt;stroke-linejoin:round;stroke-miterlimit:10;stroke-dasharray:5,40;stroke-dashoffset:0"
             d="m 2703.33,606.668 0,0" /><path
             id="path56"
             style="fill:none;stroke:#000000;stroke-opacity:1;stroke-width:3.33333;stroke-linecap:butt;stroke-linejoin:round;stroke-miterlimit:10;stroke-dasharray:5,40;stroke-dashoffset:0"
             d="m 388.332,900 2314.998,0" /><path
             id="path58"
             style="fill:none;stroke:#000000;stroke-opacity:1;stroke-width:3.33333;stroke-linecap:butt;stroke-linejoin:round;stroke-miterlimit:10;stroke-dasharray:5,40;stroke-dashoffset:0"
             d="m 2703.33,900 0,0" /><path
             id="path60"
             style="fill:none;stroke:#000000;stroke-opacity:1;stroke-width:3.33333;stroke-linecap:butt;stroke-linejoin:round;stroke-miterlimit:10;stroke-dasharray:5,40;stroke-dashoffset:0"
             d="m 388.332,1193.33 2314.998,0" /><path
             id="path62"
             style="fill:none;stroke:#000000;stroke-opacity:1;stroke-width:3.33333;stroke-linecap:butt;stroke-linejoin:round;stroke-miterlimit:10;stroke-dasharray:5,40;stroke-dashoffset:0"
             d="m 2703.33,1193.33 0,0" /><path
             id="path64"
             style="fill:none;stroke:#000000;stroke-opacity:1;stroke-width:3.33333;stroke-linecap:butt;stroke-linejoin:round;stroke-miterlimit:10;stroke-dasharray:5,40;stroke-dashoffset:0"
             d="m 388.332,1486.67 2314.998,0" /><path
             id="path66"
             style="fill:none;stroke:#000000;stroke-opacity:1;stroke-width:3.33333;stroke-linecap:butt;stroke-linejoin:round;stroke-miterlimit:10;stroke-dasharray:5,40;stroke-dashoffset:0"
             d="m 2703.33,1486.67 0,0" /><path
             id="path68"
             style="fill:none;stroke:#000000;stroke-opacity:1;stroke-width:3.33333;stroke-linecap:butt;stroke-linejoin:round;stroke-miterlimit:10;stroke-dasharray:5,40;stroke-dashoffset:0"
             d="m 388.332,1780 2314.998,0" /><path
             id="path70"
             style="fill:none;stroke:#000000;stroke-opacity:1;stroke-width:3.33333;stroke-linecap:butt;stroke-linejoin:round;stroke-miterlimit:10;stroke-dasharray:5,40;stroke-dashoffset:0"
             d="m 2703.33,1780 0,0" /><path
             id="path72"
             style="fill:none;stroke:#000000;stroke-opacity:1;stroke-width:3.33333;stroke-linecap:butt;stroke-linejoin:round;stroke-miterlimit:10;stroke-dasharray:5,40;stroke-dashoffset:0"
             d="m 388.332,2072.5 2314.998,0" /><path
             id="path74"
             style="fill:none;stroke:#000000;stroke-opacity:1;stroke-width:3.33333;stroke-linecap:butt;stroke-linejoin:round;stroke-miterlimit:10;stroke-dasharray:5,40;stroke-dashoffset:0"
             d="m 2703.33,2072.5 0,0" /><path
             id="path76"
             style="fill:none;stroke:#000000;stroke-opacity:1;stroke-width:5;stroke-linecap:butt;stroke-linejoin:round;stroke-miterlimit:10;stroke-dasharray:none"
             d="m 388.332,2072.5 2314.998,0" /><path
             id="path78"
             style="fill:none;stroke:#000000;stroke-opacity:1;stroke-width:5;stroke-linecap:butt;stroke-linejoin:round;stroke-miterlimit:10;stroke-dasharray:none"
             d="m 388.332,313.332 2314.998,0" /><path
             id="path80"
             style="fill:none;stroke:#000000;stroke-opacity:1;stroke-width:5;stroke-linecap:butt;stroke-linejoin:round;stroke-miterlimit:10;stroke-dasharray:none"
             d="m 2703.33,313.332 0,1759.168" /><path
             id="path82"
             style="fill:none;stroke:#000000;stroke-opacity:1;stroke-width:5;stroke-linecap:butt;stroke-linejoin:round;stroke-miterlimit:10;stroke-dasharray:none"
             d="m 388.332,313.332 0,1759.168" /><path
             id="path84"
             style="fill:none;stroke:#000000;stroke-opacity:1;stroke-width:5;stroke-linecap:butt;stroke-linejoin:round;stroke-miterlimit:10;stroke-dasharray:none"
             d="m 388.332,313.332 2314.998,0" /><path
             id="path86"
             style="fill:none;stroke:#000000;stroke-opacity:1;stroke-width:5;stroke-linecap:butt;stroke-linejoin:round;stroke-miterlimit:10;stroke-dasharray:none"
             d="m 388.332,313.332 0,1759.168" /><path
             id="path88"
             style="fill:none;stroke:#000000;stroke-opacity:1;stroke-width:5;stroke-linecap:butt;stroke-linejoin:round;stroke-miterlimit:10;stroke-dasharray:none"
             d="m 388.332,313.332 0,23.336" /><path
             id="path90"
             style="fill:none;stroke:#000000;stroke-opacity:1;stroke-width:5;stroke-linecap:butt;stroke-linejoin:round;stroke-miterlimit:10;stroke-dasharray:none"
             d="m 388.332,2072.5 0,-22.5" /><g
             transform="scale(10,10)"
             id="g92"><text
   id="text94"
   transform="matrix(1,0,0,-1,33.3332,19.25)"><tspan
     id="tspan96"
     sodipodi:role="line"
     y="0"
     x="0 5.56"
     style="fill:#000000;fill-opacity:1;fill-rule:nonzero;stroke:none;font-family:Helvetica;font-variant:normal;font-weight:normal;font-size:10;writing-mode:lr;-inkscape-font-specification:Helvetica">10</tspan></text>


</g><path
             id="path98"
             style="fill:none;stroke:#000000;stroke-opacity:1;stroke-width:5;stroke-linecap:butt;stroke-linejoin:round;stroke-miterlimit:10;stroke-dasharray:none"
             d="m 966.668,313.332 0,23.336" /><path
             id="path100"
             style="fill:none;stroke:#000000;stroke-opacity:1;stroke-width:5;stroke-linecap:butt;stroke-linejoin:round;stroke-miterlimit:10;stroke-dasharray:none"
             d="m 966.668,2072.5 0,-22.5" /><g
             transform="scale(10,10)"
             id="g102"><text
   id="text104"
   transform="matrix(1,0,0,-1,91.1668,19.25)"><tspan
     id="tspan106"
     sodipodi:role="line"
     y="0"
     x="0 5.56"
     style="fill:#000000;fill-opacity:1;fill-rule:nonzero;stroke:none;font-family:Helvetica;font-variant:normal;font-weight:normal;font-size:10;writing-mode:lr;-inkscape-font-specification:Helvetica">20</tspan></text>


</g><path
             id="path108"
             style="fill:none;stroke:#000000;stroke-opacity:1;stroke-width:5;stroke-linecap:butt;stroke-linejoin:round;stroke-miterlimit:10;stroke-dasharray:none"
             d="m 1545.83,313.332 0,23.336" /><path
             id="path110"
             style="fill:none;stroke:#000000;stroke-opacity:1;stroke-width:5;stroke-linecap:butt;stroke-linejoin:round;stroke-miterlimit:10;stroke-dasharray:none"
             d="m 1545.83,2072.5 0,-22.5" /><g
             transform="scale(10,10)"
             id="g112"><text
   id="text114"
   transform="matrix(1,0,0,-1,149.083,19.25)"><tspan
     id="tspan116"
     sodipodi:role="line"
     y="0"
     x="0 5.56"
     style="fill:#000000;fill-opacity:1;fill-rule:nonzero;stroke:none;font-family:Helvetica;font-variant:normal;font-weight:normal;font-size:10;writing-mode:lr;-inkscape-font-specification:Helvetica">30</tspan></text>


</g><path
             id="path118"
             style="fill:none;stroke:#000000;stroke-opacity:1;stroke-width:5;stroke-linecap:butt;stroke-linejoin:round;stroke-miterlimit:10;stroke-dasharray:none"
             d="m 2124.17,313.332 0,23.336" /><path
             id="path120"
             style="fill:none;stroke:#000000;stroke-opacity:1;stroke-width:5;stroke-linecap:butt;stroke-linejoin:round;stroke-miterlimit:10;stroke-dasharray:none"
             d="m 2124.17,2072.5 0,-22.5" /><g
             transform="scale(10,10)"
             id="g122"><text
   id="text124"
   transform="matrix(1,0,0,-1,206.917,19.25)"><tspan
     id="tspan126"
     sodipodi:role="line"
     y="0"
     x="0 5.56"
     style="fill:#000000;fill-opacity:1;fill-rule:nonzero;stroke:none;font-family:Helvetica;font-variant:normal;font-weight:normal;font-size:10;writing-mode:lr;-inkscape-font-specification:Helvetica">40</tspan></text>


</g><path
             id="path128"
             style="fill:none;stroke:#000000;stroke-opacity:1;stroke-width:5;stroke-linecap:butt;stroke-linejoin:round;stroke-miterlimit:10;stroke-dasharray:none"
             d="m 2703.33,313.332 0,23.336" /><path
             id="path130"
             style="fill:none;stroke:#000000;stroke-opacity:1;stroke-width:5;stroke-linecap:butt;stroke-linejoin:round;stroke-miterlimit:10;stroke-dasharray:none"
             d="m 2703.33,2072.5 0,-22.5" /><g
             transform="scale(10,10)"
             id="g132"><text
   id="text134"
   transform="matrix(1,0,0,-1,264.833,19.25)"><tspan
     id="tspan136"
     sodipodi:role="line"
     y="0"
     x="0 5.56"
     style="fill:#000000;fill-opacity:1;fill-rule:nonzero;stroke:none;font-family:Helvetica;font-variant:normal;font-weight:normal;font-size:10;writing-mode:lr;-inkscape-font-specification:Helvetica">50</tspan></text>


</g><path
             id="path138"
             style="fill:none;stroke:#000000;stroke-opacity:1;stroke-width:5;stroke-linecap:butt;stroke-linejoin:round;stroke-miterlimit:10;stroke-dasharray:none"
             d="m 388.332,313.332 22.5,0" /><path
             id="path140"
             style="fill:none;stroke:#000000;stroke-opacity:1;stroke-width:5;stroke-linecap:butt;stroke-linejoin:round;stroke-miterlimit:10;stroke-dasharray:none"
             d="m 2703.33,313.332 -23.33,0" /><g
             transform="scale(10,10)"
             id="g142"><text
   id="text144"
   transform="matrix(1,0,0,-1,30.4168,27.6668)"><tspan
     id="tspan146"
     y="0"
     x="0"
     style="fill:#000000;fill-opacity:1;fill-rule:nonzero;stroke:none;font-family:Helvetica;font-variant:normal;font-weight:normal;font-size:10;writing-mode:lr;-inkscape-font-specification:Helvetica">0</tspan></text>


</g><path
             id="path148"
             style="fill:none;stroke:#000000;stroke-opacity:1;stroke-width:5;stroke-linecap:butt;stroke-linejoin:round;stroke-miterlimit:10;stroke-dasharray:none"
             d="m 388.332,606.668 22.5,0" /><path
             id="path150"
             style="fill:none;stroke:#000000;stroke-opacity:1;stroke-width:5;stroke-linecap:butt;stroke-linejoin:round;stroke-miterlimit:10;stroke-dasharray:none"
             d="m 2703.33,606.668 -23.33,0" /><g
             transform="scale(10,10)"
             id="g152"><text
   id="text154"
   transform="matrix(1,0,0,-1,30.4168,57)"><tspan
     id="tspan156"
     y="0"
     x="0"
     style="fill:#000000;fill-opacity:1;fill-rule:nonzero;stroke:none;font-family:Helvetica;font-variant:normal;font-weight:normal;font-size:10;writing-mode:lr;-inkscape-font-specification:Helvetica">2</tspan></text>


</g><path
             id="path158"
             style="fill:none;stroke:#000000;stroke-opacity:1;stroke-width:5;stroke-linecap:butt;stroke-linejoin:round;stroke-miterlimit:10;stroke-dasharray:none"
             d="m 388.332,900 22.5,0" /><path
             id="path160"
             style="fill:none;stroke:#000000;stroke-opacity:1;stroke-width:5;stroke-linecap:butt;stroke-linejoin:round;stroke-miterlimit:10;stroke-dasharray:none"
             d="M 2703.33,900 2680,900" /><g
             transform="scale(10,10)"
             id="g162"><text
   id="text164"
   transform="matrix(1,0,0,-1,30.4168,86.3332)"><tspan
     id="tspan166"
     y="0"
     x="0"
     style="fill:#000000;fill-opacity:1;fill-rule:nonzero;stroke:none;font-family:Helvetica;font-variant:normal;font-weight:normal;font-size:10;writing-mode:lr;-inkscape-font-specification:Helvetica">4</tspan></text>


</g><path
             id="path168"
             style="fill:none;stroke:#000000;stroke-opacity:1;stroke-width:5;stroke-linecap:butt;stroke-linejoin:round;stroke-miterlimit:10;stroke-dasharray:none"
             d="m 388.332,1193.33 22.5,0" /><path
             id="path170"
             style="fill:none;stroke:#000000;stroke-opacity:1;stroke-width:5;stroke-linecap:butt;stroke-linejoin:round;stroke-miterlimit:10;stroke-dasharray:none"
             d="m 2703.33,1193.33 -23.33,0" /><g
             transform="scale(10,10)"
             id="g172"><text
   id="text174"
   transform="matrix(1,0,0,-1,30.4168,115.667)"><tspan
     id="tspan176"
     y="0"
     x="0"
     style="fill:#000000;fill-opacity:1;fill-rule:nonzero;stroke:none;font-family:Helvetica;font-variant:normal;font-weight:normal;font-size:10;writing-mode:lr;-inkscape-font-specification:Helvetica">6</tspan></text>


</g><path
             id="path178"
             style="fill:none;stroke:#000000;stroke-opacity:1;stroke-width:5;stroke-linecap:butt;stroke-linejoin:round;stroke-miterlimit:10;stroke-dasharray:none"
             d="m 388.332,1486.67 22.5,0" /><path
             id="path180"
             style="fill:none;stroke:#000000;stroke-opacity:1;stroke-width:5;stroke-linecap:butt;stroke-linejoin:round;stroke-miterlimit:10;stroke-dasharray:none"
             d="m 2703.33,1486.67 -23.33,0" /><g
             transform="scale(10,10)"
             id="g182"><text
   id="text184"
   transform="matrix(1,0,0,-1,30.4168,145)"><tspan
     id="tspan186"
     y="0"
     x="0"
     style="fill:#000000;fill-opacity:1;fill-rule:nonzero;stroke:none;font-family:Helvetica;font-variant:normal;font-weight:normal;font-size:10;writing-mode:lr;-inkscape-font-specification:Helvetica">8</tspan></text>


</g><path
             id="path188"
             style="fill:none;stroke:#000000;stroke-opacity:1;stroke-width:5;stroke-linecap:butt;stroke-linejoin:round;stroke-miterlimit:10;stroke-dasharray:none"
             d="m 388.332,1780 22.5,0" /><path
             id="path190"
             style="fill:none;stroke:#000000;stroke-opacity:1;stroke-width:5;stroke-linecap:butt;stroke-linejoin:round;stroke-miterlimit:10;stroke-dasharray:none"
             d="m 2703.33,1780 -23.33,0" /><g
             transform="scale(10,10)"
             id="g192"><text
   id="text194"
   transform="matrix(1,0,0,-1,24.8332,174.333)"><tspan
     id="tspan196"
     sodipodi:role="line"
     y="0"
     x="0 5.56"
     style="fill:#000000;fill-opacity:1;fill-rule:nonzero;stroke:none;font-family:Helvetica;font-variant:normal;font-weight:normal;font-size:10;writing-mode:lr;-inkscape-font-specification:Helvetica">10</tspan></text>


</g><path
             id="path198"
             style="fill:none;stroke:#000000;stroke-opacity:1;stroke-width:5;stroke-linecap:butt;stroke-linejoin:round;stroke-miterlimit:10;stroke-dasharray:none"
             d="m 388.332,2072.5 22.5,0" /><path
             id="path200"
             style="fill:none;stroke:#000000;stroke-opacity:1;stroke-width:5;stroke-linecap:butt;stroke-linejoin:round;stroke-miterlimit:10;stroke-dasharray:none"
             d="m 2703.33,2072.5 -23.33,0" /><g
             transform="scale(10,10)"
             id="g202"><text
   id="text204"
   transform="matrix(1,0,0,-1,24.8332,203.583)"><tspan
     id="tspan206"
     sodipodi:role="line"
     y="0"
     x="0 5.56"
     style="fill:#000000;fill-opacity:1;fill-rule:nonzero;stroke:none;font-family:Helvetica;font-variant:normal;font-weight:normal;font-size:10;writing-mode:lr;-inkscape-font-specification:Helvetica">12</tspan></text>


</g><path
             id="path208"
             style="fill:none;stroke:#000000;stroke-opacity:1;stroke-width:5;stroke-linecap:butt;stroke-linejoin:round;stroke-miterlimit:10;stroke-dasharray:none"
             d="m 388.332,2072.5 2314.998,0" /><path
             id="path210"
             style="fill:none;stroke:#000000;stroke-opacity:1;stroke-width:5;stroke-linecap:butt;stroke-linejoin:round;stroke-miterlimit:10;stroke-dasharray:none"
             d="m 388.332,313.332 2314.998,0" /><path
             id="path212"
             style="fill:none;stroke:#000000;stroke-opacity:1;stroke-width:5;stroke-linecap:butt;stroke-linejoin:round;stroke-miterlimit:10;stroke-dasharray:none"
             d="m 2703.33,313.332 0,1759.168" /><path
             id="path214"
             style="fill:none;stroke:#000000;stroke-opacity:1;stroke-width:5;stroke-linecap:butt;stroke-linejoin:round;stroke-miterlimit:10;stroke-dasharray:none"
             d="m 388.332,313.332 0,1759.168" /></g></g><g
         id="g216"><g
           clip-path="url(#clipPath220)"
           id="g218"><path
             sodipodi:nodetypes="ccccccccccccccccccccc"
             inkscape:connector-curvature="0"
             id="path224"
             style="fill:none;stroke:#0000ff;stroke-width:20;stroke-linecap:butt;stroke-linejoin:round;stroke-miterlimit:10;stroke-opacity:1;stroke-dasharray:none"
             d="m 388.332,343.332 115,7.5 29.168,1.668 29.168,1.668 29.164,2.5 28.336,1.664 29.164,2.5 29.168,2.5 28.332,2.5 29.168,2.5 174.168,15.836 173.332,18.332 173.33,19.168 174.17,22.5 173.33,25.832 173.34,29.168 174.16,35 173.34,40.832 173.33,47.5 174.17,55 212.4825,83.98305" /></g></g><g
         id="g226"><g
           clip-path="url(#clipPath230)"
           id="g228"><g
             transform="scale(10,10)"
             id="g234"><text
   id="text236"
   transform="matrix(1,0,0,-1,129.333,7.3332)"><tspan
     id="tspan238"
     y="0"
     x="0"
     style="fill:#000000;fill-opacity:1;fill-rule:nonzero;stroke:none;font-family:Helvetica;font-variant:normal;font-weight:normal;font-size:10;writing-mode:lr;-inkscape-font-specification:Helvetica">q</tspan></text>


<text
   id="text240"
   transform="matrix(1,0,0,-1,134.833,2.3332)"><tspan
     id="tspan242"
     sodipodi:role="line"
     y="0"
     x="0 4 6.224 10.672"
     style="fill:#000000;fill-opacity:1;fill-rule:nonzero;stroke:none;font-family:Helvetica;font-variant:normal;font-weight:normal;font-size:8;writing-mode:lr;-inkscape-font-specification:Helvetica">c/n0</tspan></text>


<text
   id="text244"
   transform="matrix(1,0,0,-1,149.9166,7.3332)"><tspan
     id="tspan246"
     sodipodi:role="line"
     y="0"
     x="0 2.78"
     style="font-size:11.2px;font-variant:normal;font-weight:normal;writing-mode:lr-tb;fill:#000000;fill-opacity:1;fill-rule:nonzero;stroke:none;font-family:Helvetica;-inkscape-font-specification:Helvetica">, дБГц</tspan></text>


<text
   y="18.474577"
   x="64.204933"
   id="text248"
   transform="matrix(0,1,1,0,0,0)"><tspan
     y="18.474577"
     id="tspan250"
     sodipodi:role="line"
     x="64.204933"
     style="font-size:11.19999981px;font-variant:normal;font-weight:normal;writing-mode:lr-tb;fill:#000000;fill-opacity:1;fill-rule:nonzero;stroke:none;font-family:Helvetica;-inkscape-font-specification:Helvetica">Шумовая полоса, Гц</tspan></text>


</g></g></g><g
         id="g252"><g
           clip-path="url(#clipPath256)"
           id="g254"><path
             id="path260"
             style="fill:none;stroke:#007f00;stroke-opacity:1;stroke-width:20;stroke-linecap:butt;stroke-linejoin:round;stroke-miterlimit:10;stroke-dasharray:none"
             d="m 388.332,503.332 57.5,20 57.5,22.5 58.336,23.336 57.5,25 58.332,26.664 57.5,23.336 58.332,29.164 57.5,29.168 29.168,15.832 29.168,15 28.332,16.668 29.168,16.668 29.164,16.664 28.338,17.5 29.16,17.5 29.17,18.336 29.17,18.332 28.33,18.332 58.33,38.336 57.5,38.332 58.34,40 57.5,40.83 58.33,41.67 57.5,42.5 58.33,45 57.5,45.83 57.5,47.5 58.34,50 57.5,51.67 58.33,53.33 57.5,55 58.33,57.5 57.5,59.17 58.34,61.67 57.5,64.16 57.5,65 58.33,68.34 57.5,69.16 58.33,71.67 57.5,74.17" /></g></g><g
         id="g262"><g
           clip-path="url(#clipPath266)"
           id="g264"><g
             transform="scale(10,10)"
             id="g270">

<text
   id="text276"
   transform="matrix(1,0,0,-1,141.583,157.75)"><tspan
     id="tspan278"
     y="0"
     x="0"
     style="fill:#000000;fill-opacity:1;fill-rule:nonzero;stroke:none;font-family:Helvetica;font-variant:normal;font-weight:normal;font-size:8;writing-mode:lr;-inkscape-font-specification:Helvetica">a</tspan></text>


<text
   id="text280"
   transform="matrix(1,0,0,-1,148.7798,162.75)"><tspan
     id="tspan282"
     sodipodi:role="line"
     y="0"
     x="0 5.8400002 8.6199999 14.18 19.74"
     style="font-size:10px;font-variant:normal;font-weight:normal;writing-mode:lr-tb;fill:#000000;fill-opacity:1;fill-rule:nonzero;stroke:none;font-family:Helvetica;-inkscape-font-specification:Helvetica"><tspan
       style="font-size:11.2px"
       id="tspan3287">= 40 м/с</tspan></tspan></text>


<text
   id="text284"
   transform="scale(1,-1)"
   x="187.11467"
   y="-168.42116"><tspan
     id="tspan286"
     y="-168.42116"
     x="187.11467"
     style="font-size:8px;font-variant:normal;font-weight:normal;writing-mode:lr-tb;fill:#000000;fill-opacity:1;fill-rule:nonzero;stroke:none;font-family:Helvetica;-inkscape-font-specification:Helvetica">2</tspan></text>




<text
   id="text292"
   transform="matrix(1,0,0,-1,196.4166,73.75)"><tspan
     id="tspan294"
     y="0"
     x="0"
     style="fill:#000000;fill-opacity:1;fill-rule:nonzero;stroke:none;font-family:Helvetica;font-variant:normal;font-weight:normal;font-size:8;writing-mode:lr;-inkscape-font-specification:Helvetica">a</tspan></text>


<text
   id="text296"
   transform="matrix(1,0,0,-1,203.61301,78.75)"><tspan
     id="tspan298"
     sodipodi:role="line"
     y="0"
     x="0 5.8400002 8.6199999 14.18"
     style="font-size:11.2px;font-variant:normal;font-weight:normal;writing-mode:lr-tb;fill:#000000;fill-opacity:1;fill-rule:nonzero;stroke:none;font-family:Helvetica;-inkscape-font-specification:Helvetica">= 1 м/с</tspan></text>


<text
   id="text300"
   transform="scale(1,-1)"
   x="236.86804"
   y="-83.917786"><tspan
     id="tspan302"
     y="-83.917786"
     x="236.86804"
     style="font-size:8px;font-variant:normal;font-weight:normal;writing-mode:lr-tb;fill:#000000;fill-opacity:1;fill-rule:nonzero;stroke:none;font-family:Helvetica;-inkscape-font-specification:Helvetica">2</tspan></text>


</g></g></g></g><g
       transform="matrix(1.4671809,0,0,-1.5996707,-374.54355,322.14369)"
       id="g3203"
       ns0:preamble="/media/Data/Work/Temp/preamb"
       ns0:text="$$\\sigma$$"><defs
         id="defs3205"><g
           id="g3207"><symbol
             style="overflow:visible"
             id="textext-8bf67862-0"
             overflow="visible"><path
               inkscape:connector-curvature="0"
               id="path3210"
               d="m 5.15625,-3.71875 c 0.140625,0 0.5,0 0.5,-0.34375 0,-0.234375 -0.21875,-0.234375 -0.390625,-0.234375 l -2.28125,0 c -1.5,0 -2.609375,1.640625 -2.609375,2.828125 0,0.875 0.59375,1.578125 1.5,1.578125 1.171875,0 2.5,-1.203125 2.5,-2.734375 0,-0.171875 0,-0.65625 -0.3125,-1.09375 z M 1.890625,-0.109375 C 1.390625,-0.109375 1,-0.46875 1,-1.1875 c 0,-0.296875 0.109375,-1.109375 0.46875,-1.703125 0.421875,-0.6875 1.015625,-0.828125 1.359375,-0.828125 0.828125,0 0.90625,0.65625 0.90625,0.96875 0,0.46875 -0.203125,1.28125 -0.53125,1.796875 -0.390625,0.578125 -0.9375,0.84375 -1.3125,0.84375 z m 0,0"
               style="stroke:none" /></symbol></g></defs><g
         id="textext-8bf67862-1"><g
           id="g3213"
           style="fill:#000000;fill-opacity:1"><use
             height="1052.3622"
             width="744.09448"
             id="use3215"
             y="134.765"
             x="392.263"
             xlink:href="#textext-8bf67862-0"
             transform="translate(-7.3762746,18.145817)" /></g></g></g><use
       style="fill:#000000;fill-opacity:1"
       height="1052.3622"
       width="744.09448"
       id="use3215-3"
       y="134.765"
       x="392.263"
       xlink:href="#textext-8bf67862-0"
       transform="matrix(1.4671809,0,0,-1.5996707,-440.42348,377.33375)" /></g></svg>